<?xml version="1.0" encoding="UTF-8"?>
<svg version="1.1" xmlns="http://www.w3.org/2000/svg" width="1536" height="1024" viewBox="0 0 1536 1024">
<path d="M0 0 C2.3386071 0.00537723 4.67702357 0.00001522 7.015625 -0.00634766 C26.99991655 -0.01763642 26.99991655 -0.01763642 34.59375 3.50927734 C36.8729768 4.28795087 36.8729768 4.28795087 40.0234375 4.11083984 C48.60593432 4.15629798 57.14267468 7.61993178 64.83203125 11.25927734 C67.38987257 12.44513725 70.02710701 13.27382945 72.7109375 14.13037109 C91.58070734 20.63718828 108.17570025 31.6186842 122.7109375 45.13037109 C123.29617188 45.66645996 123.88140625 46.20254883 124.484375 46.75488281 C142.81734433 63.69186457 155.33351721 84.01729552 161.7109375 108.13037109 C162.19046875 109.88994141 162.19046875 109.88994141 162.6796875 111.68505859 C164.84594114 120.53059429 165.20249265 129.08575639 164.7109375 138.13037109 C164.6790332 138.80970703 164.64712891 139.48904297 164.61425781 140.18896484 C162.98753498 169.60901188 146.1703037 195.86449689 124.7109375 215.13037109 C111.61940757 226.51683171 96.76257109 234.71407951 80.7109375 241.13037109 C79.710625 241.53126953 78.7103125 241.93216797 77.6796875 242.34521484 C30.75175621 260.21288983 -24.51413488 251.82496933 -69.35498047 231.86352539 C-71.33801028 230.96287708 -73.31488166 230.05024383 -75.2890625 229.13037109 C-76.22903076 228.6943457 -76.22903076 228.6943457 -77.18798828 228.24951172 C-96.90647944 219.00024794 -115.09172478 207.45119495 -132.2890625 194.13037109 C-132.9490625 193.62199707 -133.6090625 193.11362305 -134.2890625 192.58984375 C-144.50509237 184.70539242 -154.53667991 176.582436 -164.2890625 168.13037109 C-168.0826116 169.45944904 -170.7307131 171.10060576 -173.7890625 173.69287109 C-186.42869138 184.02262627 -200.47150966 192.48949098 -214.2890625 201.13037109 C-214.99885254 201.57445312 -215.70864258 202.01853516 -216.43994141 202.47607422 C-232.58349216 212.51732197 -249.34814565 220.93117019 -266.92919922 228.15478516 C-268.99728929 229.00974977 -271.05279244 229.88768161 -273.10546875 230.77880859 C-292.73129688 239.06770584 -314.02972609 244.40471875 -335.0390625 247.81787109 C-335.7710083 247.93743164 -336.5029541 248.05699219 -337.25708008 248.18017578 C-386.51441028 255.71037581 -442.02125504 249.32827918 -483.45361328 219.93457031 C-497.06201201 209.89989541 -507.98826061 198.20349456 -517.2890625 184.13037109 C-518.04642138 182.9946518 -518.80421514 181.85922235 -519.5625 180.72412109 C-520.13226562 179.86818359 -520.70203125 179.01224609 -521.2890625 178.13037109 C-520.7940625 177.14037109 -520.7940625 177.14037109 -520.2890625 176.13037109 C-519.47115234 177.07396484 -519.47115234 177.07396484 -518.63671875 178.03662109 C-493.21678294 206.88933456 -455.60622258 221.723415 -417.6171875 224.84912109 C-371.2210251 227.71898681 -325.16121756 219.84213351 -283.2890625 199.13037109 C-281.87248511 198.44268716 -280.45582042 197.75518302 -279.0390625 197.06787109 C-275.72514515 195.4459991 -272.43449954 193.78310988 -269.15527344 192.09228516 C-267.93395013 191.46277 -266.71070542 190.83696526 -265.48535156 190.21533203 C-240.83673053 177.69518315 -218.39726809 161.60880077 -196.2890625 145.13037109 C-195.59280762 144.6132959 -194.89655273 144.0962207 -194.17919922 143.56347656 C-184.87050349 136.65005345 -175.68063555 129.59237396 -166.54296875 122.45458984 C-165.85090332 121.91882324 -165.15883789 121.38305664 -164.44580078 120.83105469 C-162.90878618 119.61905064 -161.39360712 118.37913789 -159.89404297 117.12109375 C-158.71092529 116.145354 -158.71092529 116.145354 -157.50390625 115.14990234 C-156.79226318 114.54895752 -156.08062012 113.9480127 -155.34741211 113.32885742 C-153.2890625 112.13037109 -153.2890625 112.13037109 -151.16967773 112.33666992 C-148.49857796 113.46398985 -146.61712068 115.12373174 -144.4140625 117.00537109 C-143.44339844 117.82005859 -142.47273438 118.63474609 -141.47265625 119.47412109 C-140.69704346 120.12574219 -140.69704346 120.12574219 -139.90576172 120.79052734 C-136.55446905 123.56792 -133.11074768 126.22908047 -129.68066406 128.90795898 C-126.76917208 131.1827094 -123.86528846 133.46443327 -120.98828125 135.78271484 C-88.66570729 161.73357525 -53.74875909 182.44177534 -13.2890625 192.13037109 C-12.51530273 192.32179688 -11.74154297 192.51322266 -10.94433594 192.71044922 C18.71620109 199.76442511 50.71616706 194.9405067 76.80273438 179.34960938 C86.3794087 173.23063399 92.93758597 164.71269729 98.7109375 155.13037109 C99.42636719 153.98568359 99.42636719 153.98568359 100.15625 152.81787109 C104.56658233 144.18225535 104.61188252 131.18362996 102.11914062 121.93457031 C96.91836592 107.83936725 86.2306625 98.49480582 72.91040039 92.30322266 C40.11324674 77.71298601 1.73719642 81.04591877 -31.2890625 93.13037109 C-31.94664551 93.37013672 -32.60422852 93.60990234 -33.28173828 93.85693359 C-37.67372466 95.48533496 -41.99549527 97.26030387 -46.2890625 99.13037109 C-46.93488281 99.41074219 -47.58070313 99.69111328 -48.24609375 99.97998047 C-63.27415594 106.58940976 -77.61859212 114.57965744 -91.23046875 123.75146484 C-91.81763168 124.14500656 -92.40479462 124.53854828 -93.00975037 124.9440155 C-95.91549311 126.89435105 -98.80429996 128.86396809 -101.67163086 130.87036133 C-102.7210083 131.58264893 -103.77038574 132.29493652 -104.8515625 133.02880859 C-105.78097656 133.6751123 -106.71039062 134.32141602 -107.66796875 134.98730469 C-110.2890625 136.13037109 -110.2890625 136.13037109 -112.94213867 135.45825195 C-116.06461205 133.69156802 -118.82410807 131.5714725 -121.6015625 129.31787109 C-122.19678711 128.8430127 -122.79201172 128.3681543 -123.40527344 127.87890625 C-126.85055413 125.12250346 -130.26986664 122.33411786 -133.69140625 119.54833984 C-134.41610107 118.95835205 -135.1407959 118.36836426 -135.88745117 117.76049805 C-137.30510342 116.60408116 -138.72068652 115.44512238 -140.1340332 114.28344727 C-140.77816162 113.755979 -141.42229004 113.22851074 -142.0859375 112.68505859 C-142.65666992 112.21567871 -143.22740234 111.74629883 -143.81542969 111.26269531 C-145.30753812 110.04182049 -145.30753812 110.04182049 -147.2890625 109.13037109 C-147.2890625 108.47037109 -147.2890625 107.81037109 -147.2890625 107.13037109 C-145.78295898 105.79272461 -145.78295898 105.79272461 -143.66015625 104.25927734 C-142.880354 103.69072021 -142.10055176 103.12216309 -141.29711914 102.53637695 C-140.44883545 101.92802002 -139.60055176 101.31966309 -138.7265625 100.69287109 C-136.9634553 99.41434435 -135.20043534 98.13569729 -133.4375 96.85693359 C-132.55932617 96.22303711 -131.68115234 95.58914063 -130.77636719 94.93603516 C-128.63358755 93.38047978 -126.50711821 91.80731221 -124.390625 90.21630859 C-114.35392634 82.68775723 -103.91980249 75.791135 -93.2890625 69.13037109 C-92.62648438 68.70095215 -91.96390625 68.2715332 -91.28125 67.82910156 C-86.8822824 65.09729588 -86.8822824 65.09729588 -84.1171875 65.25146484 C-83.51390625 65.54150391 -82.910625 65.83154297 -82.2890625 66.13037109 C-81.60328125 66.45134766 -80.9175 66.77232422 -80.2109375 67.10302734 C-79.49421875 67.46267578 -78.7775 67.82232422 -78.0390625 68.19287109 C-71.41128331 71.14455742 -66.62185971 70.81226526 -59.9765625 68.31787109 C-55.86963435 66.63512659 -53.26500077 64.97381005 -51.1640625 61.00537109 C-49.97178379 57.08788391 -49.64545435 53.19559369 -49.2890625 49.13037109 C-24.59303346 39.39148507 2.96589539 39.95862974 28.7109375 45.13037109 C29.99226562 45.38560547 31.27359375 45.64083984 32.59375 45.90380859 C48.1129513 49.55735706 63.33165321 56.51555243 76.7109375 65.13037109 C76.59234375 65.99919922 76.47375 66.86802734 76.3515625 67.76318359 C75.19187255 75.12773504 75.19187255 75.12773504 77.6484375 81.81787109 C78.3290625 82.58099609 79.0096875 83.34412109 79.7109375 84.13037109 C79.7109375 84.79037109 79.7109375 85.45037109 79.7109375 86.13037109 C80.2884375 86.41912109 80.8659375 86.70787109 81.4609375 87.00537109 C83.7109375 88.13037109 83.7109375 88.13037109 85.43359375 89.16943359 C90.52586334 91.31814426 96.32790692 90.81430488 101.7109375 90.13037109 C105.91059744 88.35602917 109.36305705 86.15656801 111.9140625 82.32177734 C113.68923936 77.44004099 113.41035412 72.21197329 112.7109375 67.13037109 C110.58847229 62.68150273 107.54048219 60.60659119 103.3359375 58.19287109 C96.66794586 56.23845975 91.27943143 56.77562799 84.7109375 59.13037109 C83.03073557 60.10745822 81.36151515 61.10403235 79.7109375 62.13037109 C78.93234375 61.64568359 78.15375 61.16099609 77.3515625 60.66162109 C67.23807862 54.60285195 56.75978053 50.20137648 45.7109375 46.13037109 C44.61394531 45.71787109 43.51695312 45.30537109 42.38671875 44.88037109 C14.08096459 35.20577421 -17.00346597 35.76761667 -45.68359375 43.26318359 C-49.2890625 44.13037109 -49.2890625 44.13037109 -53.2890625 44.13037109 C-54.64479998 42.81982486 -55.97519081 41.48288606 -57.2890625 40.13037109 C-62.79484672 36.27632214 -68.81293874 36.21369827 -75.2890625 37.13037109 C-79.89827305 38.98287677 -83.80451547 41.74587633 -86.2890625 46.13037109 C-87.48888135 49.01073514 -87.48888135 49.01073514 -86.97265625 51.66162109 C-86.66332218 55.39327025 -86.87069278 57.63480311 -88.2890625 61.13037109 C-92.7275193 65.29928033 -98.50608647 67.91257738 -103.83349609 70.76269531 C-107.60605784 72.86389743 -111.13083431 75.27839763 -114.6640625 77.75537109 C-115.32325684 78.21363281 -115.98245117 78.67189453 -116.66162109 79.14404297 C-122.64565528 83.33002235 -128.49395533 87.68693771 -134.2890625 92.13037109 C-135.31257813 92.90896484 -136.33609375 93.68755859 -137.390625 94.48974609 C-143.27562216 98.97870016 -149.08473769 103.55315841 -154.8515625 108.19287109 C-160.15609563 112.45947316 -165.53399409 116.59872663 -171 120.65771484 C-175.12067627 123.73595044 -179.17025917 126.90561529 -183.2265625 130.06787109 C-184.00636475 130.6748584 -184.78616699 131.2818457 -185.58959961 131.90722656 C-188.94175533 134.51738787 -192.29132231 137.13050625 -195.62890625 139.75927734 C-205.2433774 147.27019624 -215.2355596 154.22311575 -225.2890625 161.13037109 C-225.95695801 161.58943848 -226.62485352 162.04850586 -227.31298828 162.52148438 C-242.69076415 173.04184223 -258.38364249 183.2314488 -275.26708984 191.16796875 C-277.40004614 192.1831962 -279.51041767 193.23762578 -281.62109375 194.29833984 C-297.5352747 202.19822192 -314.23799252 208.17931414 -331.2890625 213.13037109 C-332.36474487 213.45303955 -332.36474487 213.45303955 -333.4621582 213.78222656 C-354.73220485 220.10900402 -375.53162993 221.41089986 -397.6015625 221.50537109 C-399.06899399 221.51728989 -399.06899399 221.51728989 -400.56607056 221.52944946 C-418.12947088 221.63890454 -434.80075781 219.86232872 -451.7265625 215.00537109 C-452.77295898 214.70751709 -453.81935547 214.40966309 -454.89746094 214.1027832 C-475.52196762 207.9915283 -497.63547976 197.99233351 -511.546875 181.06787109 C-513.3051851 179.11244103 -515.12474079 177.70060366 -517.2265625 176.13037109 C-521.13525257 172.79961963 -523.30248855 169.01910028 -525.6015625 164.50537109 C-525.92697021 163.87888672 -526.25237793 163.25240234 -526.58764648 162.60693359 C-535.10728819 144.89918258 -535.34796455 120.76761982 -528.9921875 102.31396484 C-521.38234195 82.67701082 -521.38234195 82.67701082 -516.2890625 80.13037109 C-516.61132812 81.37560547 -516.93359375 82.62083984 -517.265625 83.90380859 C-521.34200687 102.36657177 -518.81478075 121.77726559 -508.93774414 137.83496094 C-505.77767045 142.69970047 -502.13376505 146.96356072 -498.0390625 151.07958984 C-496.22693241 153.2031798 -495.82297902 154.45498506 -495.2890625 157.13037109 C-493.2614321 158.43384778 -491.24743388 159.14499737 -488.9765625 159.94287109 C-485.42981252 161.51003969 -482.18054761 163.53053434 -479.2890625 166.13037109 C-479.2890625 166.79037109 -479.2890625 167.45037109 -479.2890625 168.13037109 C-476.9790625 168.79037109 -474.6690625 169.45037109 -472.2890625 170.13037109 C-472.2890625 170.79037109 -472.2890625 171.45037109 -472.2890625 172.13037109 C-471.41507812 172.25992188 -471.41507812 172.25992188 -470.5234375 172.39208984 C-465.69012001 173.22044143 -461.49476366 174.38340457 -457.0390625 176.44287109 C-413.96268715 195.15728609 -361.1184546 186.14626586 -319.03271484 169.87109375 C-304.17832841 163.99782071 -290.01659863 157.29452803 -276.2890625 149.13037109 C-274.99210449 148.36055908 -274.99210449 148.36055908 -273.66894531 147.57519531 C-256.75137562 137.46096258 -240.80903413 126.26024791 -225.2890625 114.13037109 C-223.20720401 112.52429087 -221.12384179 110.92015815 -219.0390625 109.31787109 C-218.51135254 108.91149414 -217.98364258 108.50511719 -217.43994141 108.08642578 C-214.37316638 105.72596595 -211.29927192 103.37521008 -208.21875 101.03271484 C-201.3484601 95.80453428 -194.51164872 90.54767904 -187.7890625 85.13037109 C-181.13694788 79.77142897 -174.37948715 74.56257252 -167.57421875 69.39990234 C-164.8090385 67.30000988 -162.06825605 65.17438466 -159.34765625 63.01708984 C-113.67654623 27.00186764 -59.09045843 -0.16165319 0 0 Z " fill="#123D6D" transform="translate(952.2890625,260.86962890625)"/>
<path d="M0 0 C3.67800558 1.55718158 6.95647453 3.40088311 10 6 C10 6.66 10 7.32 10 8 C10.63389648 7.85900879 11.26779297 7.71801758 11.92089844 7.57275391 C14.86322562 6.92026907 17.80659862 6.27262107 20.75 5.625 C21.74644531 5.40328125 22.74289062 5.1815625 23.76953125 4.953125 C62.905547 -3.63154942 100.7670632 1.94218419 136 21 C138.65850218 22.35038759 141.32826379 23.67585003 144 25 C144.886875 24.360625 145.77375 23.72125 146.6875 23.0625 C151.80225976 19.87783826 157.01303685 19.22534673 163 20 C168.14111707 21.60117342 172.57930666 24.51301824 175.9296875 28.7421875 C178.22806568 33.59059112 177.76382116 38.80735615 177 44 C175.01119611 48.64054241 171.87485709 51.57732962 167.5390625 54.078125 C161.50625268 56.26849903 154.56171897 56.21131784 148.49609375 54.1484375 C143.52248123 51.37378459 140.14727241 47.25780722 138 42 C137.53126554 37.46890022 138.2374928 33.46254213 139 29 C122.15277195 19.70134222 106.03927269 12.35858375 87 9 C85.78828125 8.77441406 84.5765625 8.54882812 83.328125 8.31640625 C60.68098229 4.79297739 36.81883145 5.72705618 15 13 C14.96261719 13.58007812 14.92523437 14.16015625 14.88671875 14.7578125 C14.36296555 20.98123292 13.38643066 25.61356934 8.8125 30.1875 C3.14224197 33.84166629 -3.1524001 36.40943313 -10 35 C-12.63772277 33.80030067 -15.11666799 32.47972457 -17.60546875 30.99609375 C-20.69018847 29.7128906 -21.84883494 29.9017263 -25 31 C-27.51530739 32.39388756 -29.90334193 33.81776073 -32.3125 35.375 C-33.01181641 35.82053223 -33.71113281 36.26606445 -34.43164062 36.72509766 C-50.347951 46.93818222 -65.70716698 57.97878404 -80.3984375 69.890625 C-82 71 -82 71 -84 71 C-84 71.66 -84 72.32 -84 73 C-83.46761719 73.23074219 -82.93523437 73.46148437 -82.38671875 73.69921875 C-79.25644699 75.40524248 -76.58030996 77.58670476 -73.8125 79.8125 C-72.57056693 80.79198936 -71.3283669 81.77114029 -70.0859375 82.75 C-67.19586061 85.03827254 -64.33352519 87.35807029 -61.4765625 89.6875 C-59.96397504 90.89637578 -58.4509615 92.10471865 -56.9375 93.3125 C-55.86689331 94.20255737 -55.86689331 94.20255737 -54.7746582 95.1105957 C-52.89575647 96.59532225 -51.13087514 97.90809747 -49 99 C-46.35456807 98.84442899 -46.35456807 98.84442899 -44 97 C-43.41726318 96.64043213 -42.83452637 96.28086426 -42.23413086 95.91040039 C-40.12844544 94.60428987 -38.06480195 93.24474988 -36 91.875 C-34.46019871 90.86892901 -32.91983014 89.86372573 -31.37890625 88.859375 C-30.62625488 88.36759766 -29.87360352 87.87582031 -29.09814453 87.36914062 C13.56085706 59.5320821 62.19541094 38.90071606 114 48 C133.11615996 52.05124157 149.67999145 59.84370294 161.24609375 76.03125 C165.66892459 83.5175561 167.7116292 89.56358718 167.5625 98.3125 C167.55009277 99.23675781 167.53768555 100.16101563 167.52490234 101.11328125 C167.01448147 116.66064661 158.20651757 128.18313123 147.4375 138.75 C124.6403146 158.18835244 93.54124198 161.94322782 64.765625 159.71875 C33.42552625 156.16048551 4.21341966 142.9939531 -22 126 C-22.65693848 125.5771875 -23.31387695 125.154375 -23.99072266 124.71875 C-36.24418112 116.80331884 -48.08994586 108.28833717 -59.4140625 99.08984375 C-63.15235917 96.06871276 -66.94267201 93.11460453 -70.73608398 90.16308594 C-73.60913079 87.91813711 -76.44077831 85.64662935 -79.19921875 83.26171875 C-80.16472656 82.43285156 -81.13023437 81.60398437 -82.125 80.75 C-82.97320313 80.00234375 -83.82140625 79.2546875 -84.6953125 78.484375 C-86.81644682 76.76967907 -86.81644682 76.76967907 -88.91088867 77.23828125 C-91.25034323 78.09127859 -92.78538633 79.1514723 -94.73046875 80.703125 C-95.44195068 81.26451172 -96.15343262 81.82589844 -96.88647461 82.40429688 C-98.02548218 83.31791992 -98.02548218 83.31791992 -99.1875 84.25 C-100.81723517 85.5370577 -102.44745456 86.82350247 -104.078125 88.109375 C-105.3146582 89.08874023 -105.3146582 89.08874023 -106.57617188 90.08789062 C-135.5395704 112.93653459 -165.35517953 134.69694461 -197.61230469 152.66894531 C-199.67656117 153.81969443 -201.73322825 154.98275829 -203.7890625 156.1484375 C-207.4856369 158.19281838 -211.21153959 160.13275069 -215 162 C-215.82226074 162.40541016 -216.64452148 162.81082031 -217.49169922 163.22851562 C-241.86794507 175.02981808 -269.11679916 184.18528882 -296 188 C-296.7326709 188.11134277 -297.4653418 188.22268555 -298.22021484 188.33740234 C-335.55040977 193.79701392 -376.46845161 190.67296022 -411 175 C-412.03906494 174.53207031 -412.03906494 174.53207031 -413.09912109 174.0546875 C-427.02017804 167.68485721 -438.88590925 159.61232593 -450 149 C-449.34 148.67 -448.68 148.34 -448 148 C-449.98 145.69 -451.96 143.38 -454 141 C-453.505 140.01 -453.505 140.01 -453 139 C-443 149 -443 149 -440.44140625 151.625 C-425.25335253 166.39993866 -402.86001707 174.21844539 -382.75 179.3125 C-381.79295166 179.55500488 -380.83590332 179.79750977 -379.84985352 180.04736328 C-364.69275795 183.70200931 -350.14249693 184.37094102 -334.625 184.3125 C-333.6015448 184.31034485 -332.5780896 184.3081897 -331.52362061 184.30596924 C-316.5078874 184.25514811 -301.76478129 184.01355492 -287 181 C-286.04722168 180.80664062 -285.09444336 180.61328125 -284.11279297 180.4140625 C-255.45909057 174.35315205 -228.66250133 162.96219863 -203.00341797 149.07958984 C-201.37538539 148.20228542 -199.73786581 147.34260305 -198.09765625 146.48828125 C-185.183333 139.69449035 -172.44103253 131.86724675 -160.7890625 123.08203125 C-157.84992008 120.88796555 -154.8589437 118.78306759 -151.8527832 116.68237305 C-144.34363234 111.43296226 -136.99324696 106.04540833 -129.77978516 100.39404297 C-126.27648666 97.65003276 -122.76198801 94.92037294 -119.25 92.1875 C-118.1067627 91.29659668 -118.1067627 91.29659668 -116.94042969 90.38769531 C-111.05064491 85.80234287 -105.12019197 81.27240335 -99.18017578 76.75244141 C-94.60357258 73.25817887 -90.10051148 69.6849046 -85.625 66.0625 C-69.4454152 53.03729049 -52.41030166 41.3132579 -35 30 C-34.20384277 29.48066895 -33.40768555 28.96133789 -32.58740234 28.42626953 C-27.24415365 25 -27.24415365 25 -25 25 C-25.03480469 24.20335937 -25.06960938 23.40671875 -25.10546875 22.5859375 C-25.38544728 11.62677795 -25.38544728 11.62677795 -22 7 C-15.36233814 0.36233814 -9.2510264 -1.33450014 0 0 Z " fill="#FAFBFC" transform="translate(889,297)"/>
<path d="M0 0 C0.93537598 0.59216309 0.93537598 0.59216309 1.88964844 1.19628906 C13.02840771 8.26178623 23.43211492 16.27963725 33.85620117 24.34936523 C35.8917654 25.91666392 37.9412605 27.46331783 40 29 C38.90554543 32.28336371 38.34334986 32.76871551 35.67578125 34.75 C34.98355469 35.27062012 34.29132813 35.79124023 33.578125 36.32763672 C32.83046875 36.8795166 32.0828125 37.43139648 31.3125 38 C29.75588861 39.16844291 28.19990838 40.33772709 26.64453125 41.5078125 C25.86287598 42.09336914 25.0812207 42.67892578 24.27587891 43.28222656 C20.981748 45.76854978 17.73747617 48.31558596 14.5 50.875 C9.34947929 54.93766055 4.18477018 58.98111729 -1 63 C-4.78641157 61.39256113 -7.44122173 58.97070277 -10.5 56.25 C-40.75161598 30.0437096 -79.97677673 9.01409509 -120 4 C-120.71631592 3.91008789 -121.43263184 3.82017578 -122.1706543 3.72753906 C-139.4769109 1.75809162 -158.08234617 1.42900396 -175 6 C-176.07652832 6.29003906 -176.07652832 6.29003906 -177.17480469 6.5859375 C-192.83259378 10.98015462 -207.97382165 17.87101274 -220 29 C-220.51014648 29.46390137 -221.02029297 29.92780273 -221.54589844 30.40576172 C-233.42187299 41.30310025 -244.84394413 55.25328127 -246.16113281 72.05541992 C-246.20703363 74.43292191 -246.23526471 76.80959232 -246.25 79.1875 C-246.270625 80.00025391 -246.29125 80.81300781 -246.3125 81.65039062 C-246.3505366 87.62689151 -245.21928241 92.46758715 -243 98 C-242.64679688 98.89589844 -242.29359375 99.79179687 -241.9296875 100.71484375 C-234.87812977 115.57534873 -222.69566793 123.7320394 -208 130 C-206.66130167 130.65582696 -205.32585109 131.31857421 -204 132 C-228.98161525 131.33942844 -253.56209823 116.89530234 -270.66503906 99.42871094 C-280.05168695 89.38286905 -287.1104369 75.77234306 -288 62 C-288.04769531 61.29182129 -288.09539062 60.58364258 -288.14453125 59.85400391 C-289.38551852 38.66414633 -281.42516947 21.19905218 -267.48144531 5.26464844 C-197.79775371 -71.71104617 -77.98662821 -50.1530168 0 0 Z " fill="#11193D" transform="translate(729,306)"/>
<path d="M0 0 C1.28132812 0.25523437 2.56265625 0.51046875 3.8828125 0.7734375 C19.49445574 4.44874876 34.45826365 11.51384522 48 20 C47.34 24.29 46.68 28.58 46 33 C45.08299316 33.0501123 44.16598633 33.10022461 43.22119141 33.15185547 C39.77290575 33.34374114 36.32511162 33.54209052 32.87744141 33.74462891 C31.39386206 33.83049834 29.91013717 33.91389438 28.42626953 33.99462891 C20.9113726 34.40508518 13.60025528 34.90986326 6.23681641 36.57177734 C2.30778212 37.32396313 -1.63603849 37.29824425 -5.625 37.375 C-24.36306873 38.04602772 -42.40316072 41.56123968 -60 48 C-60.65758301 48.23976563 -61.31516602 48.47953125 -61.99267578 48.7265625 C-66.38466216 50.35496387 -70.70643277 52.12993278 -75 54 C-75.64582031 54.28037109 -76.29164063 54.56074219 -76.95703125 54.84960938 C-91.98509344 61.45903867 -106.32952962 69.44928635 -119.94140625 78.62109375 C-120.52856918 79.01463547 -121.11573212 79.40817719 -121.72068787 79.81364441 C-124.62643061 81.76397996 -127.51523746 83.733597 -130.38256836 85.73999023 C-131.4319458 86.45227783 -132.48132324 87.16456543 -133.5625 87.8984375 C-134.49191406 88.54474121 -135.42132812 89.19104492 -136.37890625 89.85693359 C-139 91 -139 91 -141.65307617 90.32788086 C-144.77554955 88.56119692 -147.53504557 86.4411014 -150.3125 84.1875 C-150.90772461 83.7126416 -151.50294922 83.2377832 -152.11621094 82.74853516 C-155.56149163 79.99213237 -158.98080414 77.20374677 -162.40234375 74.41796875 C-163.12703857 73.82798096 -163.8517334 73.23799316 -164.59838867 72.63012695 C-166.01604092 71.47371007 -167.43162402 70.31475128 -168.8449707 69.15307617 C-169.81116333 68.36187378 -169.81116333 68.36187378 -170.796875 67.5546875 C-171.36760742 67.08530762 -171.93833984 66.61592773 -172.52636719 66.13232422 C-174.01847562 64.91144939 -174.01847562 64.91144939 -176 64 C-176 63.34 -176 62.68 -176 62 C-174.49389648 60.66235352 -174.49389648 60.66235352 -172.37109375 59.12890625 C-171.20139038 58.27607056 -171.20139038 58.27607056 -170.00805664 57.40600586 C-169.15977295 56.79764893 -168.31148926 56.18929199 -167.4375 55.5625 C-165.6743928 54.28397325 -163.91137284 53.0053262 -162.1484375 51.7265625 C-161.27026367 51.09266602 -160.39208984 50.45876953 -159.48730469 49.80566406 C-157.34452505 48.25010869 -155.21805571 46.67694111 -153.1015625 45.0859375 C-143.06486384 37.55738613 -132.63073999 30.66076391 -122 24 C-121.33742188 23.57058105 -120.67484375 23.14116211 -119.9921875 22.69873047 C-115.5932199 19.96692479 -115.5932199 19.96692479 -112.828125 20.12109375 C-112.22484375 20.41113281 -111.6215625 20.70117188 -111 21 C-110.31421875 21.32097656 -109.6284375 21.64195312 -108.921875 21.97265625 C-108.20515625 22.33230469 -107.4884375 22.69195312 -106.75 23.0625 C-100.12222081 26.01418633 -95.33279721 25.68189417 -88.6875 23.1875 C-84.58057185 21.5047555 -81.97593827 19.84343895 -79.875 15.875 C-78.68272129 11.95751282 -78.35639185 8.0652226 -78 4 C-53.30397096 -5.73888603 -25.74504211 -5.17174135 0 0 Z " fill="#13629E" transform="translate(981,306)"/>
</svg>
